# xmcd
#
# Track frame offsets: 
#        150
#        13188
#        22562
#        34784
#        44532
#        55738
#        66721
#        76986
#        87937
#        100271
#        111286
#        123027
#        134180
#        147238
#        158517
#        172153
#        185562
#        196638
#        211364
#        222061
#        235712
#        246269
#        255722
#
# Disc length: 3568 seconds
#
# Revision: 0
# Processed by: cddbd v1.4PL0 Copyright (c) Steve Scherf et al.
# Submitted via: ExactAudioCopy v0.90b3
#
DISCID=430dee17
DTITLE=George Jones - Musicor Hits 1965 - 1971
DYEAR=1900
DGENRE=Country
TTITLE0=Things Have Gone To Pieces
TTITLE1=Love Bug
TTITLE2=Take Me
TTITLE3=I'm A People
TTITLE4=Old Brush Arbors
TTITLE5=Four-O-Thirty-Three
TTITLE6=Walk Through This World With Me
TTITLE7=I Can't Get There From Here
TTITLE8=If My Heart Had Windows
TTITLE9=Say It's Not You
TTITLE10=Small Time Laboring Man
TTITLE11=As Long As I Live
TTITLE12=When The Grass Grows Over Me
TTITLE13=I'll Share My World With You
TTITLE14=If Not For You
TTITLE15=She's Mine
TTITLE16=No Blues Is Good News
TTITLE17=Where Grass Won't Grow
TTITLE18=Tell Me My Lying Eyes Are Wrong
TTITLE19=A Good Year For The Roses
TTITLE20=Sometimes You Just Can't Win
TTITLE21=Right Won't Touch A Hand
TTITLE22=I'll Follow You (Up To Our Cloud)
EXTD=
EXTT0=
EXTT1=
EXTT2=
EXTT3=
EXTT4=
EXTT5=
EXTT6=
EXTT7=
EXTT8=
EXTT9=
EXTT10=
EXTT11=
EXTT12=
EXTT13=
EXTT14=
EXTT15=
EXTT16=
EXTT17=
EXTT18=
EXTT19=
EXTT20=
EXTT21=
EXTT22=
PLAYORDER=
